<?xml version="1.0" encoding="iso-8859-1"?>
<!-- Uploaded to: SVG Repo, www.svgrepo.com, Generator: SVG Repo Mixer Tools -->
<svg height="800px" width="800px" version="1.1" id="Layer_1" xmlns="http://www.w3.org/2000/svg" xmlns:xlink="http://www.w3.org/1999/xlink" 
	 viewBox="0 0 512 512" xml:space="preserve">
<path style="fill:#FF5050;" d="M291.546,83.71H25.623c-4.708,0-8.589,3.692-8.824,8.395L0.011,427.85
	c-0.252,5.046,3.772,9.277,8.824,9.277h308.786L300.37,92.105C300.135,87.402,296.254,83.71,291.546,83.71z"/>
<g>
	<circle style="fill:#C84146;" cx="105.572" cy="127.892" r="26.506"/>
	<circle style="fill:#C84146;" cx="211.597" cy="127.892" r="26.506"/>
	<path style="fill:#C84146;" d="M317.621,437.126l-12.37-247.391h-199.68c-19.488,0-35.342,15.854-35.342,35.342v132.531
		c0,19.488,15.854,35.342,35.342,35.342v44.177H317.621z"/>
</g>
<path style="fill:#00C3FF;" d="M317.621,375.278H105.572c-9.76,0-17.671-7.911-17.671-17.671V225.076
	c0-9.76,7.911-17.671,17.671-17.671h212.049c9.76,0,17.671,7.911,17.671,17.671v132.531
	C335.292,367.367,327.381,375.278,317.621,375.278z"/>
<path style="fill:#00AAF0;" d="M132.078,295.759c-14.639,0-26.506,11.867-26.506,26.506v53.012h212.049
	c9.76,0,17.671-7.911,17.671-17.671v-61.848H132.078z"/>
<g>
	<path style="fill:#FFDC64;" d="M132.078,251.582h26.506c4.879,0,8.835,3.956,8.835,8.835v17.671c0,4.879-3.956,8.835-8.835,8.835
		h-26.506c-4.879,0-8.835-3.956-8.835-8.835v-17.671C123.243,255.538,127.199,251.582,132.078,251.582z"/>
	<circle style="fill:#FFDC64;" cx="282.28" cy="269.248" r="17.671"/>
</g>
<circle style="fill:#FF5050;" cx="246.938" cy="269.248" r="17.671"/>
<path style="fill:#F1F4FB;" d="M503.165,507.809H132.078c-4.879,0-8.835-3.956-8.835-8.835V322.266c0-4.879,3.956-8.835,8.835-8.835
	h371.086c4.879,0,8.835,3.956,8.835,8.835v176.708C512,503.853,508.044,507.809,503.165,507.809z"/>
<ellipse style="fill:#E4EAF8;" cx="317.621" cy="410.625" rx="53.012" ry="61.848"/>
<g>
	<circle style="fill:#8CE16E;" cx="220.432" cy="410.625" r="17.671"/>
	<circle style="fill:#8CE16E;" cx="414.811" cy="410.625" r="17.671"/>
	<path style="fill:#8CE16E;" d="M344.128,425.529c0-15.885-15.531-20.733-23.874-23.34c-11.467-3.589-11.467-5.332-11.528-6.144
		c0.423-0.914,3.581-3.098,8.896-3.098c5.323,0,8.482,2.183,8.887,3.08c1.709,4.59,6.834,6.86,11.363,5.203
		c4.573-1.709,6.903-6.79,5.203-11.363c-2.412-6.475-8.668-11.355-16.618-13.454v-1.136c0-4.884-3.952-8.835-8.835-8.835
		s-8.835,3.952-8.835,8.835v1.212c-10.368,2.756-17.671,10.176-17.671,19.22c0,15.885,15.531,20.733,23.874,23.34
		c11.467,3.589,11.467,5.332,11.528,6.144c-0.423,0.914-3.581,3.098-8.896,3.098s-8.464-2.183-8.896-3.098
		c-1.709-4.565-6.816-6.851-11.355-5.185c-4.573,1.709-6.903,6.79-5.203,11.363c2.412,6.475,8.668,11.355,16.618,13.454v1.136
		c0,4.884,3.952,8.835,8.835,8.835s8.835-3.952,8.835-8.835v-1.212C336.825,441.994,344.128,434.574,344.128,425.529z"/>
</g>
<path style="fill:#9BF57D;" d="M476.659,375.278c-14.616,0-26.506-11.89-26.506-26.506c0-4.884-3.952-8.835-8.835-8.835H193.926
	c-4.884,0-8.835,3.952-8.835,8.835c0,14.616-11.89,26.506-26.506,26.506c-4.884,0-8.835,3.952-8.835,8.835v53.012
	c0,4.884,3.952,8.835,8.835,8.835c14.616,0,26.506,11.89,26.506,26.506c0,4.884,3.952,8.835,8.835,8.835h247.391
	c4.884,0,8.835-3.952,8.835-8.835c0-14.616,11.89-26.506,26.506-26.506c4.884,0,8.835-3.952,8.835-8.835v-53.012
	C485.494,379.229,481.542,375.278,476.659,375.278z M361.798,410.619c0,29.233-19.819,53.012-44.177,53.012
	s-44.177-23.779-44.177-53.012s19.819-53.012,44.177-53.012S361.798,381.386,361.798,410.619z M167.42,429.179v-37.12
	c17.282-3.521,30.933-17.17,34.453-34.453h74.979c-12.889,12.964-21.078,31.895-21.078,53.012s8.189,40.049,21.078,53.012h-74.979
	C198.353,446.35,184.703,432.699,167.42,429.179z M467.823,429.179c-17.282,3.521-30.933,17.17-34.453,34.453h-74.979
	c12.89-12.964,21.078-31.895,21.078-53.012c0-21.118-8.188-40.049-21.078-53.012h74.979c3.521,17.282,17.17,30.933,34.453,34.453
	L467.823,429.179L467.823,429.179z"/>
<path style="fill:#FFDC64;" d="M211.597,136.722c-4.884,0-8.835-3.952-8.835-8.835V66.039c0-24.358-19.819-44.177-44.177-44.177
	s-44.177,19.819-44.177,44.177v61.848c0,4.884-3.952,8.835-8.835,8.835s-8.835-3.952-8.835-8.835V66.039
	c0-34.099,27.749-61.848,61.848-61.848s61.848,27.749,61.848,61.848v61.848C220.432,132.771,216.481,136.722,211.597,136.722z"/>
<g>
	<circle style="fill:#9BF57D;" cx="158.584" cy="348.777" r="13.253"/>
	<circle style="fill:#9BF57D;" cx="476.659" cy="348.777" r="13.253"/>
	<circle style="fill:#9BF57D;" cx="158.584" cy="472.473" r="13.253"/>
	<circle style="fill:#9BF57D;" cx="476.659" cy="472.473" r="13.253"/>
</g>
</svg>